<svg xmlns="http://www.w3.org/2000/svg" viewBox="0 0 512 512" role="img" aria-label="Wise World 3">
  <defs>
    <linearGradient id="bg" x1="0" y1="0" x2="0" y2="1">
      <stop offset="0" stop-color="#8a5fd9"/>
      <stop offset="1" stop-color="#4a2a90"/>
    </linearGradient>
    <linearGradient id="globe" x1="0" y1="0" x2="0" y2="1">
      <stop offset="0" stop-color="#eaf1fc"/>
      <stop offset="1" stop-color="#cdddf7"/>
    </linearGradient>
  </defs>

  <!-- background -->
  <rect width="512" height="512" rx="112" fill="url(#bg)"/>

  <!-- globe -->
  <circle cx="256" cy="276" r="132" fill="url(#globe)"/>
  <g fill="none" stroke="#6c43c4" stroke-width="9" stroke-linecap="round" opacity="0.85">
    <path d="M124 276 H388"/>
    <path d="M150 222 H362"/>
    <path d="M150 330 H362"/>
    <path d="M256 144 C190 196 190 356 256 408"/>
    <path d="M256 144 C322 196 322 356 256 408"/>
    <ellipse cx="256" cy="276" rx="132" ry="132" stroke-width="11"/>
  </g>

  <!-- graduation cap -->
  <g>
    <path d="M256 96 L404 150 L256 204 L108 150 Z" fill="#1f2a44"/>
    <path d="M178 178 L178 236 C178 268 334 268 334 236 L334 178 L256 206 Z" fill="#16203a"/>
    <path d="M404 150 L404 224" fill="none" stroke="#f2a73b" stroke-width="9" stroke-linecap="round"/>
    <circle cx="404" cy="232" r="14" fill="#f2a73b"/>
  </g>

  <!-- "3" badge -->
  <g transform="translate(352,368)">
    <circle r="64" fill="#f2a73b" stroke="#ffffff" stroke-width="9"/>
    <path d="M -24 -22 C -24 -44 28 -44 28 -16 C 28 2 4 4 -4 4 C 4 4 30 6 30 30 C 30 54 -20 56 -26 34" fill="none" stroke="#ffffff" stroke-width="15" stroke-linecap="round" stroke-linejoin="round"/>
  </g>
</svg>
